<svg xmlns="http://www.w3.org/2000/svg" width="500" height="500" viewBox="0 0 500 500">
  <rect width="500" height="500" fill="rgba(0,0,0,0.5)"/>
  <g>
    <circle cx="24" cy="34" r="0.5" fill="white"/>
    <circle cx="128" cy="47" r="0.5" fill="white"/>
    <circle cx="241" cy="389" r="0.5" fill="white"/>
    <circle cx="431" cy="63" r="0.5" fill="white"/>
    <circle cx="69" cy="244" r="0.5" fill="white"/>
    <circle cx="379" cy="312" r="0.5" fill="white"/>
    <circle cx="292" cy="128" r="0.5" fill="white"/>
    <circle cx="412" cy="215" r="0.5" fill="white"/>
    <circle cx="330" cy="97" r="0.5" fill="white"/>
    <circle cx="160" cy="411" r="0.5" fill="white"/>
    <circle cx="56" cy="398" r="0.5" fill="white"/>
    <circle cx="495" cy="300" r="0.5" fill="white"/>
    <circle cx="308" cy="467" r="0.5" fill="white"/>
    <circle cx="430" cy="415" r="0.5" fill="white"/>
    <circle cx="237" cy="56" r="0.5" fill="white"/>
    <circle cx="87" cy="197" r="0.5" fill="white"/>
    <circle cx="205" cy="270" r="0.5" fill="white"/>
    <circle cx="120" cy="384" r="0.5" fill="white"/>
    <circle cx="70" cy="83" r="0.5" fill="white"/>
    <circle cx="190" cy="412" r="0.5" fill="white"/>
    <circle cx="290" cy="23" r="0.5" fill="white"/>
    <circle cx="490" cy="103" r="0.5" fill="white"/>
    <circle cx="150" cy="290" r="0.5" fill="white"/>
    <circle cx="35" cy="350" r="0.5" fill="white"/>
    <circle cx="260" cy="360" r="0.5" fill="white"/>
    <circle cx="312" cy="220" r="0.5" fill="white"/>
    <circle cx="457" cy="135" r="0.5" fill="white"/>
    <circle cx="112" cy="60" r="0.5" fill="white"/>
    <circle cx="243" cy="455" r="0.5" fill="white"/>
    <circle cx="85" cy="455" r="0.5" fill="white"/>
    <circle cx="400" cy="420" r="0.5" fill="white"/>
    <circle cx="220" cy="170" r="0.5" fill="white"/>
    <circle cx="380" cy="250" r="0.5" fill="white"/>
    <circle cx="299" cy="310" r="0.5" fill="white"/>
    <circle cx="480" cy="420" r="0.5" fill="white"/>
    <circle cx="430" cy="380" r="0.5" fill="white"/>
    <circle cx="70" cy="450" r="0.5" fill="white"/>
    <circle cx="480" cy="100" r="0.5" fill="white"/>
    <circle cx="230" cy="370" r="0.5" fill="white"/>
    <circle cx="330" cy="85" r="0.5" fill="white"/>
    <circle cx="400" cy="50" r="0.5" fill="white"/>
    <circle cx="100" cy="160" r="0.5" fill="white"/>
    <circle cx="490" cy="220" r="0.5" fill="white"/>
    <circle cx="180" cy="300" r="0.5" fill="white"/>
    <circle cx="310" cy="290" r="0.5" fill="white"/>
    <circle cx="240" cy="90" r="0.5" fill="white"/>
    <circle cx="60" cy="80" r="0.5" fill="white"/>
    <circle cx="20" cy="120" r="0.5" fill="white"/>
    <circle cx="400" cy="200" r="0.5" fill="white"/>
    <circle cx="150" cy="450" r="0.5" fill="white"/>
  </g>
</svg>